<svg id="logo1_normal" data-name="logo1/normal" xmlns="http://www.w3.org/2000/svg" width="233.912" height="36.321" viewBox="0 0 233.912 36.321">
  <g id="Groupe_70" data-name="Groupe 70" transform="translate(0 0)">
    <g id="Groupe_69" data-name="Groupe 69">
      <g id="logo_symbol" data-name="logo/symbol" transform="translate(0 6.131)">
        <path id="Tracé_348" data-name="Tracé 348" d="M13.168,15.371,0,28.209a16.319,16.319,0,0,0,22.665,0l1.836-1.79L35.834,15.371a16.319,16.319,0,0,0-22.665,0" transform="translate(0 -10.794)" fill="#3446a9"/>
        <path id="Tracé_349" data-name="Tracé 349" d="M82.081,16.833a17.814,17.814,0,0,0-24.741,0l-.8.778L45.21,28.659,56.542,39.708h0l12.13-11.826,1.038-1.012,1.836,1.789a16.319,16.319,0,0,0,22.665,0Z" transform="translate(-18.873 -11.245)" fill="#fd918a"/>
      </g>
      <path id="Tracé_2958" data-name="Tracé 2958" d="M132.505,34.571h-4.426V16.59h4.426v2.338a5.634,5.634,0,0,1,4.943-2.7,5.989,5.989,0,0,1,5.68,3.308,6.222,6.222,0,0,1,5.754-3.308c3.725,0,6.492,2.41,6.492,7.228V34.571h-4.426V24.322c0-2.8-1.328-4.315-3.5-4.315s-3.5,1.511-3.5,4.315V34.571h-4.426V24.322c0-2.8-1.327-4.315-3.5-4.315s-3.5,1.511-3.5,4.315Z" transform="translate(-38.422 -7.601)" fill="#3446a9"/>
      <path id="Tracé_2959" data-name="Tracé 2959" d="M197.628,31.91c-1.181,2.121-3.32,3.02-5.865,3.02-3.172,0-6.2-1.546-6.2-5.178,0-7.731,11.988-4.279,11.988-7.875,0-1.4-1.476-2.23-3.393-2.23-2.029,0-3.43,1.043-3.43,3.057h-4.611c0-4.675,3.91-6.473,8.042-6.473,4.057,0,7.819,1.618,7.819,5.826V34.571h-4.352Zm-4.943-.576c2.582,0,4.943-1.438,4.943-4.171v-.827c-2.951,1.187-7.525.827-7.525,3.129,0,1.259,1.106,1.87,2.582,1.87" transform="translate(-64.557 -7.601)" fill="#3446a9"/>
      <path id="Tracé_2960" data-name="Tracé 2960" d="M233.029,43.922a8.952,8.952,0,0,1-9.221-7.912h4.463a4.6,4.6,0,0,0,4.758,3.956c3.024,0,4.795-2.23,4.795-5.394V32.307a7.076,7.076,0,0,1-5.533,2.625c-5.053,0-8.852-3.848-8.852-9.35s3.8-9.35,8.852-9.35a7.076,7.076,0,0,1,5.533,2.625V16.591h4.426V34.572a9.079,9.079,0,0,1-9.221,9.35m4.795-18.34c0-3.237-2.14-5.394-4.979-5.394s-4.98,2.158-4.98,5.394,2.14,5.394,4.98,5.394,4.979-2.158,4.979-5.394" transform="translate(-81.775 -7.601)" fill="#3446a9"/>
      <path id="Tracé_2961" data-name="Tracé 2961" d="M281.9,27.02H268.031a4.688,4.688,0,0,0,4.98,4.135c1.955,0,3.1-.719,3.688-1.978h4.8c-1.107,3.74-4.316,5.754-8.668,5.754-5.274,0-9.147-3.848-9.147-9.35s3.873-9.35,9.147-9.35,9.148,3.848,9.148,9.35c0,.5-.037.971-.074,1.439m-13.831-3.057h9.516a4.84,4.84,0,0,0-9.516,0" transform="translate(-100.069 -7.601)" fill="#3446a9"/>
      <rect id="Rectangle_1101" data-name="Rectangle 1101" width="4.426" height="26.971" transform="translate(186.516)" fill="#3446a9"/>
      <path id="Tracé_2962" data-name="Tracé 2962" d="M340.507,2.7a2.767,2.767,0,0,1,5.533,0,2.767,2.767,0,0,1-5.533,0m.554,6.293h4.426V26.972h-4.426Z" transform="translate(-134.996 -0.001)" fill="#3446a9"/>
      <path id="Tracé_2963" data-name="Tracé 2963" d="M358.091,25.582a9.406,9.406,0,0,1,18.811,0,9.406,9.406,0,0,1-18.811,0m14.385,0c0-3.237-2.14-5.394-4.979-5.394s-4.98,2.158-4.98,5.394,2.14,5.394,4.98,5.394,4.979-2.158,4.979-5.394" transform="translate(-142.99 -7.601)" fill="#3446a9"/>
    </g>
  </g>
  <g id="Groupe_52" data-name="Groupe 52" transform="translate(195.737 21.936)">
    <path id="Tracé_55" data-name="Tracé 55" d="M322.585,43.952a2.767,2.767,0,1,1,2.766,2.7,2.662,2.662,0,0,1-2.766-2.7" transform="translate(-322.585 -41.255)" fill="#fd918a"/>
  </g>
</svg>
